<svg width="1880" height="1866" viewBox="0 0 1880 1866" fill="none" xmlns="http://www.w3.org/2000/svg">
<g clip-path="url(#clip0_12_22)">
<mask id="mask0_12_22" style="mask-type:luminance" maskUnits="userSpaceOnUse" x="0" y="0" width="1880" height="1866">
<path d="M1840 0H40C17.9086 0 0 17.9086 0 40V1826C0 1848.09 17.9086 1866 40 1866H1840C1862.09 1866 1880 1848.09 1880 1826V40C1880 17.9086 1862.09 0 1840 0Z" fill="white"/>
</mask>
<g mask="url(#mask0_12_22)">
<path d="M1840 0H40C17.9086 0 0 17.9086 0 40V1826C0 1848.09 17.9086 1866 40 1866H1840C1862.09 1866 1880 1848.09 1880 1826V40C1880 17.9086 1862.09 0 1840 0Z" fill="url(#paint0_linear_12_22)"/>
<g opacity="0.35" filter="url(#filter0_f_12_22)">
<path d="M1869.5 736C2081.85 736 2254 522.664 2254 259.5C2254 -3.6637 2081.85 -217 1869.5 -217C1657.15 -217 1485 -3.6637 1485 259.5C1485 522.664 1657.15 736 1869.5 736Z" fill="#D4B7F9"/>
</g>
<g opacity="0.35" filter="url(#filter1_f_12_22)">
<path d="M-84 1220C113.166 1220 273 1023.68 273 781.5C273 539.323 113.166 343 -84 343C-281.166 343 -441 539.323 -441 781.5C-441 1023.68 -281.166 1220 -84 1220Z" fill="#E1FF2D"/>
</g>
<path d="M121 937V1046" stroke="url(#paint1_linear_12_22)"/>
<path d="M142 1133V1209" stroke="url(#paint2_linear_12_22)"/>
<path opacity="0.7" d="M50 857V942" stroke="url(#paint3_linear_12_22)"/>
<path d="M209 1014V1086" stroke="url(#paint4_linear_12_22)"/>
<path d="M184 894V966" stroke="url(#paint5_linear_12_22)"/>
<path d="M78 1069V1122" stroke="url(#paint6_linear_12_22)"/>
<path opacity="0.4" d="M175 1096V1140" stroke="url(#paint7_linear_12_22)"/>
<path opacity="0.2" d="M56 978V1029" stroke="url(#paint8_linear_12_22)"/>
<path d="M1803 98V207" stroke="url(#paint9_linear_12_22)"/>
<path opacity="0.7" d="M1688 36V121" stroke="url(#paint10_linear_12_22)"/>
<path d="M1737 162V234" stroke="url(#paint11_linear_12_22)"/>
<path d="M1844 36V108" stroke="url(#paint12_linear_12_22)"/>
<path d="M1694 264V317" stroke="url(#paint13_linear_12_22)"/>
<path opacity="0.4" d="M1791 291V335" stroke="url(#paint14_linear_12_22)"/>
<path opacity="0.2" d="M1672 173V224" stroke="url(#paint15_linear_12_22)"/>
</g>
</g>
<defs>
<filter id="filter0_f_12_22" x="985" y="-717" width="1769" height="1953" filterUnits="userSpaceOnUse" color-interpolation-filters="sRGB">
<feFlood flood-opacity="0" result="BackgroundImageFix"/>
<feBlend mode="normal" in="SourceGraphic" in2="BackgroundImageFix" result="shape"/>
<feGaussianBlur stdDeviation="250" result="effect1_foregroundBlur_12_22"/>
</filter>
<filter id="filter1_f_12_22" x="-941" y="-157" width="1714" height="1877" filterUnits="userSpaceOnUse" color-interpolation-filters="sRGB">
<feFlood flood-opacity="0" result="BackgroundImageFix"/>
<feBlend mode="normal" in="SourceGraphic" in2="BackgroundImageFix" result="shape"/>
<feGaussianBlur stdDeviation="250" result="effect1_foregroundBlur_12_22"/>
</filter>
<linearGradient id="paint0_linear_12_22" x1="940" y1="0" x2="940" y2="1866" gradientUnits="userSpaceOnUse">
<stop stop-color="#EAF2FF"/>
<stop offset="1" stop-color="#FFF3F6"/>
</linearGradient>
<linearGradient id="paint1_linear_12_22" x1="nan" y1="nan" x2="nan" y2="nan" gradientUnits="userSpaceOnUse">
<stop stop-color="white"/>
<stop offset="0.958275" stop-color="white" stop-opacity="0"/>
</linearGradient>
<linearGradient id="paint2_linear_12_22" x1="nan" y1="nan" x2="nan" y2="nan" gradientUnits="userSpaceOnUse">
<stop stop-color="white"/>
<stop offset="0.958275" stop-color="white" stop-opacity="0"/>
</linearGradient>
<linearGradient id="paint3_linear_12_22" x1="nan" y1="nan" x2="nan" y2="nan" gradientUnits="userSpaceOnUse">
<stop stop-color="white"/>
<stop offset="0.958275" stop-color="white" stop-opacity="0"/>
</linearGradient>
<linearGradient id="paint4_linear_12_22" x1="nan" y1="nan" x2="nan" y2="nan" gradientUnits="userSpaceOnUse">
<stop stop-color="white"/>
<stop offset="0.958275" stop-color="white" stop-opacity="0"/>
</linearGradient>
<linearGradient id="paint5_linear_12_22" x1="nan" y1="nan" x2="nan" y2="nan" gradientUnits="userSpaceOnUse">
<stop stop-color="white"/>
<stop offset="0.958275" stop-color="white" stop-opacity="0"/>
</linearGradient>
<linearGradient id="paint6_linear_12_22" x1="nan" y1="nan" x2="nan" y2="nan" gradientUnits="userSpaceOnUse">
<stop stop-color="white"/>
<stop offset="0.958275" stop-color="white" stop-opacity="0"/>
</linearGradient>
<linearGradient id="paint7_linear_12_22" x1="nan" y1="nan" x2="nan" y2="nan" gradientUnits="userSpaceOnUse">
<stop stop-color="white"/>
<stop offset="0.958275" stop-color="white" stop-opacity="0"/>
</linearGradient>
<linearGradient id="paint8_linear_12_22" x1="nan" y1="nan" x2="nan" y2="nan" gradientUnits="userSpaceOnUse">
<stop stop-color="white"/>
<stop offset="0.958275" stop-color="white" stop-opacity="0"/>
</linearGradient>
<linearGradient id="paint9_linear_12_22" x1="nan" y1="nan" x2="nan" y2="nan" gradientUnits="userSpaceOnUse">
<stop stop-color="white"/>
<stop offset="0.958275" stop-color="white" stop-opacity="0"/>
</linearGradient>
<linearGradient id="paint10_linear_12_22" x1="nan" y1="nan" x2="nan" y2="nan" gradientUnits="userSpaceOnUse">
<stop stop-color="white"/>
<stop offset="0.958275" stop-color="white" stop-opacity="0"/>
</linearGradient>
<linearGradient id="paint11_linear_12_22" x1="nan" y1="nan" x2="nan" y2="nan" gradientUnits="userSpaceOnUse">
<stop stop-color="white"/>
<stop offset="0.958275" stop-color="white" stop-opacity="0"/>
</linearGradient>
<linearGradient id="paint12_linear_12_22" x1="nan" y1="nan" x2="nan" y2="nan" gradientUnits="userSpaceOnUse">
<stop stop-color="white"/>
<stop offset="0.958275" stop-color="white" stop-opacity="0"/>
</linearGradient>
<linearGradient id="paint13_linear_12_22" x1="nan" y1="nan" x2="nan" y2="nan" gradientUnits="userSpaceOnUse">
<stop stop-color="white"/>
<stop offset="0.958275" stop-color="white" stop-opacity="0"/>
</linearGradient>
<linearGradient id="paint14_linear_12_22" x1="nan" y1="nan" x2="nan" y2="nan" gradientUnits="userSpaceOnUse">
<stop stop-color="white"/>
<stop offset="0.958275" stop-color="white" stop-opacity="0"/>
</linearGradient>
<linearGradient id="paint15_linear_12_22" x1="nan" y1="nan" x2="nan" y2="nan" gradientUnits="userSpaceOnUse">
<stop stop-color="white"/>
<stop offset="0.958275" stop-color="white" stop-opacity="0"/>
</linearGradient>
<clipPath id="clip0_12_22">
<rect width="1880" height="1866" fill="white"/>
</clipPath>
</defs>
</svg>
